<?xml version="1.0" encoding="UTF-8"?>
<svg xmlns="http://www.w3.org/2000/svg" viewBox="0 0 512 512" width="512" height="512"><g id="Outline"><path d="M288,296v-8a8,8,0,0,0-8-8H232a8,8,0,0,0-8,8v8a32,32,0,0,0,64,0Zm-48,0h32a16,16,0,0,1-32,0ZM32.8,229.82c.159,0,.317-.013.476-.023l17.78,54.04L20.444,302.873a8,8,0,0,0-3.508,8.846l6.384,24.054,15.465-4.105-4.866-18.334,79.217-47.4,30.539,86.517L113.664,480H83.307l44.237-125.337-15.088-5.326L73.083,460.894,53.741,388.019l.813.569L89.71,338.364,76.6,329.188l-27.9,39.855-5.937-22.37-15.465,4.1L64.268,490.052A8,8,0,0,0,72,496H439.667a8,8,0,0,0,7.732-5.948l13.209-49.767-15.465-4.105-6.416,24.175L399.544,349.337l-15.088,5.326L428.693,480H398.336L368.193,351.891l30.34-85.955,79.215,47.4L463.054,368.7l-48.5-69.286-13.108,9.176,56,80,.4-.282L448.7,422.8l15.465,4.1,30.57-115.181a8,8,0,0,0-3.507-8.846l-30.609-19.034,33.774-102.675a25.5,25.5,0,0,0-17.212-32.487l-25.92-7.4a26.983,26.983,0,0,0-32.94,17.131l-2.151,5.649a20.317,20.317,0,0,0-26.223,30.17l11.363,14.207-14.624,43.008c0,.016-10.681,30.252-10.681,30.252V216a119.251,119.251,0,0,0-35.144-84.857c-1.568-1.569-3.193-3.1-4.856-4.584v-54.8l16-4.923V94.7l-7.589,22.768A8,8,0,0,0,352,128h16a8,8,0,0,0,7.589-10.53L368,94.7V56a8,8,0,0,0-5.647-7.646l-104-32a8,8,0,0,0-4.706,0L211.836,29.218l4.706,15.293L256,32.37,332.8,56,256,79.63,179.2,56l25.322-7.792L199.82,32.916,149.647,48.354a8,8,0,0,0,0,15.292L176,71.754v54.8A119.3,119.3,0,0,0,136,216v66.639L96.946,168.987l31.87-31.869c.051-.05.1-.1.154-.147a24,24,0,1,0-33.94-33.942c-.051.051-.1.1-.147.154L55.34,142.726l-20.845,5.951a25.444,25.444,0,0,0-17.3,32.192L4.523,193.543a8,8,0,0,0,0,11.314l22.62,22.62A7.974,7.974,0,0,0,32.8,229.82Zm413.739,45.6-42.65-24.883,8.147-23.96,44.322,19Zm-44.829-95.25a4.361,4.361,0,0,1,6.957-1.862l5.72,5.03a8,8,0,0,0,12.759-3.16s6.238-16.383,6.269-16.474a11,11,0,0,1,13.449-7.04l25.927,7.4a9.6,9.6,0,0,1,6.4,12.1l-17.814,54.155L417.2,211.383l.662-1.947a8,8,0,0,0-1.326-7.573l-14.1-17.634A4.363,4.363,0,0,1,401.71,180.169ZM184,272V240a81.091,81.091,0,0,0,20.125-2.684,15.988,15.988,0,1,0,14.1-5.142,80.8,80.8,0,0,0,37.753-36.937,81.823,81.823,0,0,0,37.715,36.951,16.023,16.023,0,1,0,14.255,5.2A81.627,81.627,0,0,0,328,240v32a72,72,0,0,1-144,0Zm21.462,72H184V322.538A88.742,88.742,0,0,0,205.462,344ZM327.618,213.964c.02.638.049,1.278.049,1.913v8.1A65.029,65.029,0,0,1,264,167.434V137.956c30.659,8.425,51.692,31.442,59.865,55.69-12.024-7.44-24.815-17.909-38.208-31.3l-11.314,11.314C293.046,192.36,310.936,205.881,327.618,213.964ZM328,322.538V344H306.538A88.742,88.742,0,0,0,328,322.538ZM301.737,360a71.341,71.341,0,0,1-91.474,0ZM381.9,480H360V432H344v48H312V432H296v48H264V416H366.841ZM264,400v-7.77A86,86,0,0,0,323.957,360h29.707l9.412,40Zm65.542-257.545A103.36,103.36,0,0,1,360,216V320a24.042,24.042,0,0,1-16,22.629V216a55.839,55.839,0,0,0-1.133-11.217c-2.446-17.5-10.509-35.068-22.974-49.531A105,105,0,0,0,297.883,136h24.57C324.914,138.045,327.292,140.206,329.542,142.455ZM192,76.677l61.647,18.969a8,8,0,0,0,4.706,0L320,76.677V120H192ZM152,216a103.45,103.45,0,0,1,37.547-80h20.347a95.751,95.751,0,0,0-35.487,45.143l14.945,5.714a79.259,79.259,0,0,1,50.676-47.821A76.4,76.4,0,0,1,248,137.015v11.594c-6.851,6.522-27.946,25.869-52.2,40.824l8.4,13.619a338.087,338.087,0,0,0,43.273-32.32A65.006,65.006,0,0,1,184,223.989v-8.112a81.674,81.674,0,0,1,1.292-14.457l-15.746-2.84A97.679,97.679,0,0,0,168,215.88V342.642A24.033,24.033,0,0,1,152,320Zm6.336,144h29.707A86,86,0,0,0,248,392.23V400H148.924ZM248,416v64H216V432H200v48H168V432H152v48H130.1l15.058-64ZM99.632,226.575l8.149,23.96L65.129,275.417l-9.82-29.846ZM112,112a8,8,0,1,1-8,8A8,8,0,0,1,112,112ZM90.338,130.355a24.019,24.019,0,0,0,4.691,6.615h0a24.019,24.019,0,0,0,6.615,4.691L90.387,152.92a21.767,21.767,0,0,0-10.715-7.966,22.282,22.282,0,0,0-3.117-.815Zm-20.681,59.3a8,8,0,0,0,1.932-8.187L66.95,167.552a5.914,5.914,0,1,1,11.221-3.74l16.295,47.571L50.29,230.315l-3.632-11.039,2.489-2.489,12.53-2.124A28.652,28.652,0,0,1,69.657,189.657ZM51.029,169.664a21.967,21.967,0,0,0,.742,2.948l3.18,9.537a44.647,44.647,0,0,0-7.33,13.537L32.8,210.506,21.494,199.2ZM99.354,324.588l-13.108-9.176,11.2-16,13.108,9.176ZM152.975,108.28l-55.734-88,13.517-8.56,55.734,88ZM82.343,93.657l-48-48L45.657,34.343l48,48Zm-56-56-16-16L21.657,10.343l16,16ZM20.438,89.344l40,26.666-8.876,13.313-40-26.667ZM400.975,11.72l13.517,8.56-25.334,40-13.517-8.56Zm4.692,105.926-11.334-11.292,71.733-72L477.4,45.646Zm84.41-107.3L501.39,21.657l-16,16L474.077,26.343Zm1.2,79.012,8.909,13.29-47.733,32-8.91-13.29Z"/></g></svg>
