<?xml version="1.0" encoding="UTF-8"?>
<svg xmlns="http://www.w3.org/2000/svg" viewBox="0 0 512 512" width="512" height="512"><g id="Outline"><path d="M408,100.686V72a8,8,0,0,0-8-8H368a8,8,0,0,0-8,8V96H296V72a40.068,40.068,0,0,0-32-39.195V16H248V32.805A40.068,40.068,0,0,0,216,72V96H152V72a8,8,0,0,0-8-8H112a8,8,0,0,0-8,8v28.686L82.343,122.343l11.314,11.314L115.313,112H236.686l-72,72H43.314l38.093-38.093L70.093,134.593l-51.75,51.75A8,8,0,0,0,16,192V488a8,8,0,0,0,8,8H488a8,8,0,0,0,8-8V344H480v24H400v16h80v48H384V376a8,8,0,0,0-8-8H352V200H480v16H368v16H480v96h16V192a8,8,0,0,0-2.343-5.657ZM136,96H120V80h16ZM376,80h16V96H376ZM256,48a24.042,24.042,0,0,1,22.629,16H233.371A24.042,24.042,0,0,1,256,48ZM232,96V80h48V96Zm24,19.313L324.687,184H307.314l-45.657-45.657a8,8,0,0,0-11.314,0L204.686,184H187.313ZM284.687,184H227.313L256,155.313ZM176,200H336v16H176ZM320,336V232h16V336Zm16,16v16H320V352Zm-80-24a24.028,24.028,0,0,0-24,24v16H208V232h96V368H280V352A24.028,24.028,0,0,0,256,328Zm8,24v16H248V352a8,8,0,0,1,16,0ZM176,232h16V336H176Zm0,120h16v16H176Zm0,64h24V400H176V384H336v16H216v16H336v16H176ZM32,384h80V368H32V232H144V216H32V200H160V368H136a8,8,0,0,0-8,8v56H32Zm128,0v48H144V384ZM32,480V448h84.686l-32,32Zm448-32v32H427.314l-32-32Zm-75.313,32H107.313l32-32H372.687ZM368,384v48H352V384ZM347.314,184l-72-72H396.687l72,72ZM128,128v16H112V128Zm32,24v16H136V152Zm160-24h24v16H320Zm-136-8v16H168V120Zm168,32h24v16H352Zm32-24h16v16H384ZM80,168V152H96v16ZM56,248H72v24H56Zm32,0h16v24H88Zm48,24H120V248h16ZM56,288H72v24H56Zm32,0h16v24H88Zm48,24H120V288h16ZM56,328H72v24H56Zm32,0h16v24H88Zm48,24H120V328h16Zm96-64h16v24H232Zm48,24H264V288h16Zm-48-64h16v24H232Zm48,24H264V248h16Zm112,0H376V248h16Zm32,0H408V248h16Zm32,0H440V248h16Zm-64,40H376V288h16Zm32,0H408V288h16Zm32,0H440V288h16Zm-80,16h16v24H376Zm32,0h16v24H408Zm32,0h16v24H440ZM56,400H72v16H56Zm32,0h16v16H88Zm336,0v16H408V400Zm32,0v16H440V400Z"/></g></svg>
