<?xml version="1.0" encoding="UTF-8"?>
<svg xmlns="http://www.w3.org/2000/svg" viewBox="0 0 512 512" width="512" height="512"><g id="Outline"><path d="M480,214.7V96a8,8,0,0,0-4.849-7.354l-168-72a8.011,8.011,0,0,0-6.3,0l-74.667,32,6.3,14.708L304,32.7,433.025,88h-106.4a24,24,0,1,0,0,16h106.4L304,159.3,156.309,96l62.842-26.933-6.3-14.707-80,34.286a8,8,0,0,0,0,14.708L184,125.275V210h16V132.133l100.849,43.221a8.008,8.008,0,0,0,6.3,0L408,132.133V256.007a199.147,199.147,0,0,0-25.256,1.83l2.173,15.851A183.132,183.132,0,0,1,409.69,272H416a8,8,0,0,0,8-8V125.275l40-17.142V214.7L448.411,261.47A8,8,0,0,0,456,272h32a8,8,0,0,0,7.589-10.53ZM304,104a8,8,0,1,1,8-8A8.009,8.009,0,0,1,304,104ZM467.1,256l4.9-14.7,4.9,14.7ZM232,168H216V152h16Zm-16,16h16v24H216Zm120,40H48a32.036,32.036,0,0,0-32,32v16H32V256a16.019,16.019,0,0,1,16-16h8V480H48a16.019,16.019,0,0,1-16-16V288H16V464a32.036,32.036,0,0,0,32,32H336a32.036,32.036,0,0,0,32-32V440H352v24a16.019,16.019,0,0,1-16,16h-8V240h8a16.019,16.019,0,0,1,16,16V424h16V256A32.036,32.036,0,0,0,336,224ZM312,480H72V240H312ZM110,320h20a14.015,14.015,0,0,0,14-14V286a14.015,14.015,0,0,0-14-14H110a14.015,14.015,0,0,0-14,14v20A14.015,14.015,0,0,0,110,320Zm2-32h16v16H112Zm70,32h20a14.015,14.015,0,0,0,14-14V286a14.015,14.015,0,0,0-14-14H182a14.015,14.015,0,0,0-14,14v20A14.015,14.015,0,0,0,182,320Zm2-32h16v16H184Zm70,32h20a14.015,14.015,0,0,0,14-14V286a14.015,14.015,0,0,0-14-14H254a14.015,14.015,0,0,0-14,14v20A14.015,14.015,0,0,0,254,320Zm2-32h16v16H256ZM110,384h20a14.015,14.015,0,0,0,14-14V350a14.015,14.015,0,0,0-14-14H110a14.015,14.015,0,0,0-14,14v20A14.015,14.015,0,0,0,110,384Zm2-32h16v16H112Zm70,32h20a14.015,14.015,0,0,0,14-14V350a14.015,14.015,0,0,0-14-14H182a14.015,14.015,0,0,0-14,14v20A14.015,14.015,0,0,0,182,384Zm2-32h16v16H184Zm70,32h20a14.015,14.015,0,0,0,14-14V350a14.015,14.015,0,0,0-14-14H254a14.015,14.015,0,0,0-14,14v20A14.015,14.015,0,0,0,254,384Zm2-32h16v16H256ZM110,448h20a14.015,14.015,0,0,0,14-14V414a14.015,14.015,0,0,0-14-14H110a14.015,14.015,0,0,0-14,14v20A14.015,14.015,0,0,0,110,448Zm2-32h16v16H112Zm70,32h20a14.015,14.015,0,0,0,14-14V414a14.015,14.015,0,0,0-14-14H182a14.015,14.015,0,0,0-14,14v20A14.015,14.015,0,0,0,182,448Zm2-32h16v16H184Zm70,32h20a14.015,14.015,0,0,0,14-14V414a14.015,14.015,0,0,0-14-14H254a14.015,14.015,0,0,0-14,14v20A14.015,14.015,0,0,0,254,448Zm2-32h16v16H256ZM72,192v16H56V192Zm96,0v16H88V192Z"/></g></svg>
