<?xml version="1.0" encoding="UTF-8"?>
<svg xmlns="http://www.w3.org/2000/svg" viewBox="0 0 512 512" width="512" height="512"><g id="Outline"><path d="M346.21,298.3A24.166,24.166,0,0,1,360,320v16h16V320a40.309,40.309,0,0,0-21.838-35.623A71.592,71.592,0,0,0,360,256V104a88.1,88.1,0,0,0-88-88H256A87.255,87.255,0,0,0,203.2,33.6l9.61,12.793a71.36,71.36,0,0,1,26.218-12.386L210.458,74,185.586,88.919A71.751,71.751,0,0,1,203.143,55.11L191.4,44.243a87.689,87.689,0,0,0-23.346,57.463L168,264a56.2,56.2,0,0,0,2.489,16.529,39.928,39.928,0,0,0-32.31,29.771l-2.425,9.7H68a20.023,20.023,0,0,0-20,20v20H64V340a4,4,0,0,1,4-4h84v88.4A20.033,20.033,0,0,0,136,444v32a20.047,20.047,0,0,0,.4,4H87.6a20.047,20.047,0,0,0,.4-4V444a20.023,20.023,0,0,0-20-20H64V376H48v48H36a20.023,20.023,0,0,0-20,20v32a20.023,20.023,0,0,0,20,20H320V480H256V456H240v24H224V440h80a16.019,16.019,0,0,0,16-16V320.473A72.472,72.472,0,0,0,346.21,298.3ZM72,476a4,4,0,0,1-4,4H36a4,4,0,0,1-4-4V444a4,4,0,0,1,4-4H68a4,4,0,0,1,4,4ZM238.98,61.591,280,84.677V106.4L227.718,77.358ZM184,108.53l32.154-19.293L280,124.707V128a16,16,0,0,0,0,32v80H256a72.081,72.081,0,0,1-72-72Zm96,181.35v19.7l-3.823,5.738A28.476,28.476,0,0,1,224,299.52v-4.9A24.039,24.039,0,0,0,240,272V254.538A88.17,88.17,0,0,0,256,256h16v16A24.083,24.083,0,0,0,280,289.88Zm-96-71.342a88.786,88.786,0,0,0,16,17.295V264h16V246.372a87.72,87.72,0,0,0,8,3.6V272a8.009,8.009,0,0,1-8,8H187.345A40.03,40.03,0,0,1,184,264ZM153.7,314.18A23.96,23.96,0,0,1,176.98,296h16.071l-16,24h-24.8ZM184,336v88H168V336Zm24,144H156a4,4,0,0,1-4-4V444a4,4,0,0,1,4-4h36a8,8,0,0,0,8-8v-4.687l8,8Zm96-56H219.314L200,404.686V328a8,8,0,0,0-4.32-7.1L208.085,302.3a44.463,44.463,0,0,0,78.63,25.592A8,8,0,0,0,288,328a71.947,71.947,0,0,0,16-1.814Zm8-336V306.579a55.549,55.549,0,0,1-16,4.852V48H280V66.317L248.334,48.5,260.116,32H272a72.081,72.081,0,0,1,72,72V256a55.8,55.8,0,0,1-16,39.138V88Zm-96,72a16,16,0,1,1,16-16A16.019,16.019,0,0,1,216,160Zm14.111,24a68.138,68.138,0,0,0,30.311-7.155l7.156,14.31A84.213,84.213,0,0,1,230.111,200H224V184ZM284.2,350.25l8.875,13.312a74.054,74.054,0,0,1-76.4,3.469l7.633-14.062a58.056,58.056,0,0,0,59.9-2.719Zm194.1,66.6a23.91,23.91,0,0,0-1.4-20.623A23.99,23.99,0,0,0,464,352H352a8,8,0,0,0-5.657,13.656,14.654,14.654,0,0,1,1.9,18.344H344a8,8,0,0,0-5.657,13.656,14.646,14.646,0,0,1,0,20.688A8,8,0,0,0,344,432h12.244a14.668,14.668,0,0,1,0,16H344a8,8,0,0,0-5.657,13.656,14.646,14.646,0,0,1,0,20.688A8,8,0,0,0,344,496H456a23.985,23.985,0,0,0,22.3-32.846,24,24,0,0,0,0-46.308ZM365.558,368H464a8,8,0,0,1,0,16H365.558A30.852,30.852,0,0,0,365.558,368Zm-8,48a30.852,30.852,0,0,0,0-16H456a8,8,0,0,1,0,16ZM456,480H357.558a30.852,30.852,0,0,0,0-16H456a8,8,0,0,1,0,16Zm16-32H373.558a30.852,30.852,0,0,0,0-16H472a8,8,0,0,1,0,16Z"/></g></svg>
